<svg width="273px" height="233px" viewBox="0 0 273 233" version="1.1" xmlns="http://www.w3.org/2000/svg" xmlns:xlink="http://www.w3.org/1999/xlink">
    <!-- Generator: Sketch 53.2 (72643) - https://sketchapp.com -->
    <title>aragon-black_logo-lockup_outline_white_vertical</title>
    <desc>Created with Sketch.</desc>
    <g id="Page-1" stroke="none" stroke-width="1" fill="none" fill-rule="evenodd">
        <g id="aragon-black_logo-lockup_outline_white_vertical" transform="translate(1.000000, 1.000000)" fill="#FFFFFF">
          <path d="M327.51,80c1.3-.18,2.6-.32,3.89-.56A103.93,103.93,0,0,1,353.21,78c7.72.21,15.48.25,23.15,1.08S391.59,81.5,399.17,83A66.4,66.4,0,0,1,410,86a25.85,25.85,0,0,1,12.56,10.39,17,17,0,0,1,1,2.31l-2.47-.93.67,2.11c-10.11-.34-20-.5-30.19.67,2.42,2.14,4.54,4.06,6.72,5.93,3.8,3.26,7.52,6.6,10.19,10.89,1.1,1.77,2,3.68,2.94,5.54,1.06,2.09-.39,4-.73,5.89-1.7,9.5-3.44,19-5.78,28.38a147.46,147.46,0,0,1-11,29.85c-3.68,7.43-6.5,15.31-9.39,23.1-5.64,15.22-11.37,30.36-20,44.23-2.72,4.37-4.72,9.18-7.5,13.51-3.93,6.14-8.42,11.93-12.41,18-6.47,9.89-14.47,18.51-22.39,27.19-9.49,10.41-20.11,19.63-30.8,28.79-13.79,11.81-28.9,21.74-44,31.68-5.27,3.47-11,6.2-16.65,9.13-5.23,2.73-10.56,5.26-15.83,7.91a2.44,2.44,0,0,1-2.52-.1c-2.23-1.16-4.57-2.09-6.89-3.08a2.08,2.08,0,0,0-1.11-.11c-3.51.6-6.52-.64-9.62-2.16-7.8-3.83-15.72-7.42-23.62-11.05a189.4,189.4,0,0,1-33.45-19.2c-10.29-7.58-20.53-15.24-29.66-24.2-7.62-7.48-15-15.23-22.23-23.06-5.65-6.1-11.18-12.34-16.32-18.86a153.84,153.84,0,0,1-10-15c-6-9.78-12.05-19.55-17.69-29.55a338,338,0,0,1-23-50.48c-1.36-3.73-3.14-7.31-4.39-11.07-2.14-6.46-4.27-12.94-5.92-19.53C6,153,3.72,142.77,1.61,132.52A119,119,0,0,1,0,118.84a3.49,3.49,0,0,1,1.24-2.27c4.13-3.91,8.13-8,12.54-11.54Q27,94.33,40.55,84.13c5.19-3.88,10.75-7.27,16.14-10.87,4.19-2.8,8.29-5.75,12.61-8.34C76.15,60.82,83.18,57,90.07,53a270.32,270.32,0,0,1,27.55-13.91c7-3.08,13.72-6.59,20.56-9.94a237.06,237.06,0,0,1,24.76-10.29c12.1-4.32,24.64-7,37-10.48a37,37,0,0,1,6.85-1,11.55,11.55,0,0,1,2.9.52s.09,0,.11-.1c.67-2.86.73-2.89,3.52-2.05a134.76,134.76,0,0,1,29.59,12.87,89,89,0,0,1,11.07,7.41,4.7,4.7,0,0,0,4.87,1.12,173.18,173.18,0,0,1,16.9-3.85,30.62,30.62,0,0,1,14.49.68c4.93,1.6,10,2.9,15,4.22a19,19,0,0,1,6.85,3.72,2.21,2.21,0,0,0,1.8.33c6.55-2.39,13.14-4.7,19.58-7.37,4.8-2,9.4-4.47,14.08-6.73a159,159,0,0,1,34.83-11.8C391.68,4.31,401,2.12,410.45.81c7.62-1.06,15.45-1.3,23.07.62,10.43,2.63,16.61,9.37,18.62,19.9.59,3.09,1.58,6.19.57,9.37a8.1,8.1,0,0,1-1.25,1.88c-.67-.5-1.35-1-2-1.52-.19-.15-.29-.49-.49-.57C445.2,29,441.59,27,437.45,27.06a47.94,47.94,0,0,0-13.64,2,222.26,222.26,0,0,0-31.89,12.87c-7.32,3.57-14.9,6.64-22.2,10.26a224.8,224.8,0,0,0-33.67,21c-2.91,2.16-5.81,4.34-8.72,6.5Zm-62.64,63.94a3.08,3.08,0,0,1,2.91,2.69c.16,1,.31,1.91.42,2.87.65,6,1.47,11.95,4.24,17.42.55,1.09,1.31,2.07,1.92,3.12.78,1.34,1.4,2.79,2.3,4,1.65,2.31,3.43,4.53,5.19,6.76,3.38,4.26,6.86,8.43,12,10.73,2.35,1.05,4.72,2.07,7.08,3.11.76.34,1.51.7,2.26,1a32,32,0,0,0-4.49-3.49,21.38,21.38,0,0,1-8-8.78c-1.11-2.38-2.56-4.59-3.82-6.9a31.59,31.59,0,0,1-3.57-20.86,39.59,39.59,0,0,1,8.08-17.74A69.66,69.66,0,0,1,307,122.73a113.82,113.82,0,0,1,25.87-13.23c9.25-3.29,18.56-6.44,27.87-9.56,9.79-3.28,19.67-6.1,30.18-5.8,6.59.18,13.2,0,19.79.12a62,62,0,0,1,6.62.82,2.48,2.48,0,0,0-.41-.43c-.75-.43-1.49-.85-2.26-1.24-9.53-4.88-19.92-6.58-30.34-8s-20.75-1.44-31.16-1.66c-3.27-.07-6.54-.61-9.79-.48-4.44.18-8.87.85-13.31,1.19a41.66,41.66,0,0,1-6.9,0,2.33,2.33,0,0,0-2.11.45c-5.4,4.74-10.81,9.48-16.29,14.13a51.76,51.76,0,0,1-5.64,4,26.5,26.5,0,0,1-3.33,1.55l-.43-.48A47.78,47.78,0,0,1,298.77,98a102.65,102.65,0,0,1,11.07-12.5c7.16-6.76,14.57-13.18,22.88-18.45q16.77-10.66,33.79-20.91a166.82,166.82,0,0,1,15.38-8.08c8.5-4,17.15-7.63,25.72-11.45a59.55,59.55,0,0,1,15.4-5c7.84-1.18,15.41-.48,22.48,3.43,1,.56,2,1.18,3,1.78.87-3.35.78-6.62-.71-12.28a7.89,7.89,0,0,0-2.3-3.7c-5.45-4.79-12.14-6.21-19.14-6.38-8.87-.21-17.5,1.73-26.11,3.56a251.91,251.91,0,0,0-34.34,9.79c-6.25,2.28-12.59,4.31-18.81,6.65-10,3.78-20,7.74-30,11.57-1.12.43-2.27.63-1.95,2.3-2.55-.85-4.91-1.7-7.31-2.43-3.28-1-6.62-1.78-9.87-2.85-3.94-1.3-7.79-2.37-12.08-2-14.42,1.08-28.4,3.65-41.11,11-4.08,2.35-8.34,4.6-11.89,7.63a108.32,108.32,0,0,1-21.45,14.65,18.84,18.84,0,0,1-6.22,2,48.08,48.08,0,0,1-17.39-1.46c-3.35-.86-6.65-1.92-10-2.88l-.33.31c.67.51,1.36,1,2,1.53a36.44,36.44,0,0,0,18.37,8.29,69.22,69.22,0,0,0,17.76.42c2.73-.28,5.46-.21,7.43,2,.7.78,1.34,2.29,1,3.11a4.45,4.45,0,0,1-2.7,2.56c-2.91.62-5.93.72-8.89,1.08a19.68,19.68,0,0,1-10.47-1.81c-1.59-.7-3.3-1.15-5.12-1.77-.13,2.13-.72,3.68-2.86,4.12-3.88.79-7.72,1.85-11.63,2.42C175.15,85.29,168,84,161,82c-2.48-.72-5-1.47-7.44-2.21,3.92,3.33,7.33,7.16,12.19,9.16,5.65,2.33,11.29,4.47,17.54,3.9,6-.55,11.93-1.19,17.89-1.86a47.38,47.38,0,0,1,13.15-.11c1.07.18,1.45.61,1.42,1.67-.07,2.4-1.24,4.38-3.55,5a68.52,68.52,0,0,1-10.94,2.51,52.66,52.66,0,0,1-26.9-4c-.56-.25-1.15-.45-1.76-.68a5,5,0,0,1-3.43,3.94c-9.21,2.92-18.43,5.77-28.06,7-6.05.76-12.1,1.55-18.35,2.35,0,.19,0,.72,0,1.24.34,9.54.58,19.09,1,28.62a123.39,123.39,0,0,0,5.08,29.94c3.74,12.32,7.82,24.53,11.75,36.79,1.19,3.71,2.72,7.38,1.64,11.06a12,12,0,0,1,3,2,13,13,0,0,1,1.62,3.48c3.68,9.27,7.29,18.57,11,27.81,3.28,8.1,6.63,16.17,10.11,24.19,3,6.94,6.28,13.76,9.38,20.66a17.11,17.11,0,0,1,1.27,8,6.53,6.53,0,0,0,.46,2.93c2.41,5.33,4.89,10.63,7.39,15.92,1.37,2.9,2.83,5.75,4.46,9.06,2.43-3.38,4.71-6.41,6.85-9.53a112.71,112.71,0,0,0,14-26.91c2.09-6.06,3.26-12.44,4.73-18.7a25.64,25.64,0,0,0,.35-11.3,51.61,51.61,0,0,1-.43-17c.29-2.28.8-2.52,3-1.79,1.23.41,1.26,1.3,1.27,2.29a66.25,66.25,0,0,0,2.84,19.2,74.54,74.54,0,0,0,7.94,17.52c.76,1.2,1.6,2.36,2.22,3.29.19-4.95.1-10,.63-15,1-9.39,1.75-18.86,3.67-28.08,2.64-12.64,6.22-25.1,9.51-37.6a117.92,117.92,0,0,1,7.29-20.44,1.77,1.77,0,0,0-.18-1.38,51.88,51.88,0,0,1-6.1-14.45,17.55,17.55,0,0,1-.26-4c0-1.15.84-1.45,1.62-.79a9.07,9.07,0,0,1,2,2.6c1.89,3.55,3.56,7.21,5.53,10.71,3,5.3,6.25,10.42,11.06,14.3,3,2.45,6,5.21,10,6,2.36.43,4.76.62,7.14.92l.1-.5c-.48-.42-1-.82-1.43-1.27-2.79-2.81-6-5.36-8.25-8.53-3.54-4.89-4.7-10.73-5.1-16.71a6.37,6.37,0,0,0-.6-2.62,50.67,50.67,0,0,1-5.34-15.45A31.61,31.61,0,0,1,264.86,143.94ZM29.54,168.82c.23.8.35,1.38.55,1.93,2.49,6.68,5,13.37,7.5,20,1.41,3.71,2.9,7.39,4.45,11a1.63,1.63,0,0,0,1.37.76c1.71-.38,3.38-1,4.85-1.4.31-5.84.31-11.6,1-17.28,1.47-12.37,2.84-24.74,3.45-37.19.13-2.57.24-5.15.43-7.72,0-.36.55-1,.74-1a2.27,2.27,0,0,1,1.38.8,2.88,2.88,0,0,1,.19,1.57c-.14,3.92-.16,7.84-.48,11.75-1.14,13.81-2.38,27.61-2,41.48a129,129,0,0,0,1.21,12.95A17.3,17.3,0,0,0,55.89,211a1.12,1.12,0,0,0,1.86.45c1.27-.9,2.54-1.79,3.79-2.72,2.57-1.92,5.15-3.83,7.66-5.81a2,2,0,0,0,.56-1.46c0-4.72-.36-9.45-.14-14.15.4-8.31,1.27-16.59,1.68-24.9.36-7.34.34-14.7.53-22.05a4.26,4.26,0,0,1,.62-1.41c.34.44.93.85,1,1.32.26,2.62.48,5.24.54,7.87.26,11.16.3,22.33.72,33.48.29,7.76.88,15.53,1.74,23.25a37.55,37.55,0,0,0,2.83,10.34c1.35,3.17,3.87,4.79,6.92,1.51.22-.24.45-.46.69-.68,1.81-1.67,3.66-3.3,5.41-5a2.08,2.08,0,0,0,.37-1.64A113.1,113.1,0,0,1,90,187.24c-.09-12.12.61-24.26-.6-36.37-.13-1.34,0-2.71,0-4.07h.52c.65,7,1.21,14.1,2,21.14,1,9.34,2,18.67,3.26,28,1,7.22,2.68,14.29,7,20.36,3.07,4.33,2.66,4.17,6.41.72q3.33-3.07,6.65-6.15c.24-.16.12-.62,0-1.06-3.88-10.55-5.44-21.48-5.77-32.67-.18-5.95-.78-11.88-1.2-17.82-.24-3.37-.51-6.74-.74-10.1a4.65,4.65,0,0,1,.2-1.12l.52-.08c.55,1.76,1.24,3.5,1.62,5.3,1.8,8.6,2.12,17.36,2.73,26.09.53,7.6,1.14,15.2,3.23,22.59a31.25,31.25,0,0,0,10,16c3.68,3.05,7,3.83,10.89,1.3a3.62,3.62,0,0,0,1.82-3.93,39,39,0,0,0-1.45-6.25c-3.54-10.35-7.33-20.62-10.72-31a136.84,136.84,0,0,1-5.67-24.59c-2.34-17.93-2.66-35.95-2.65-54,0-7.88-.37-15.77-.78-23.65-.2-3.89-.86-7.75-1.34-11.83-.64.32-1.12.53-1.56.79C103.82,71,93.38,77,83,83.18A355.7,355.7,0,0,0,51.43,104L35.58,115.82c-5.32,4-10.64,8-16,11.91a1.48,1.48,0,0,0-.71,1.93c2.75,9.87,5.44,19.76,8.13,29.64.46,1.68.85,3.37,1.28,5.06A24.5,24.5,0,0,0,29.92,160c1.73-5.81,3.54-11.6,5.12-17.44,1-3.67,1.6-7.45,2.48-11.16.14-.59.76-1.07,1.15-1.59.27.62.78,1.25.75,1.85a43.41,43.41,0,0,1-.63,5.76c-1.11,6-2.35,12-3.48,18-.59,3.16-1,6.36-1.57,9.52C33.34,167.17,32.16,168.71,29.54,168.82ZM2.31,121c1.07,4.77,2,9.88,3.38,14.89C8.13,145,10.76,154,13.37,163c1.58,5.46,2.92,11,5,16.3C23.48,192,29,204.55,34.27,217.17a277.62,277.62,0,0,0,15.26,31.94c9.16,15.86,19.21,31.11,31,45.18,12.32,14.68,25.5,28.49,40.36,40.58,8.6,7,17.57,13.58,26.55,20.1a204.91,204.91,0,0,0,44.44,24.86c6.62,2.65,13.33,5.09,20,7.56a2.87,2.87,0,0,0,2-.18c6.78-3.1,13.76-5.87,20.24-9.51,7.09-4,13.8-8.68,20.52-13.29s13.66-9.35,20.07-14.55c9.42-7.63,18.54-15.64,27.66-23.64a322.64,322.64,0,0,0,30.77-31.12c5-5.71,9.58-11.71,14.26-17.65,6-7.65,11.72-15.53,16.17-24.2,2-3.85,3.23-8.06,4.92-12.07,5-11.87,10.21-23.65,15-35.6,3.1-7.71,5.53-15.68,8.42-23.48,1.6-4.31,3.49-8.52,5.3-12.75,1.2-2.81,2.81-5.48,3.64-8.39,2.24-7.89,4.2-15.87,6.17-23.84,1-3.85,1.77-7.75,2.47-11.66a4.57,4.57,0,0,0-.68-2.78c-3-5.17-7.4-9-11.76-12.92-3.35-3-7.08-5.53-10.67-8.23a2,2,0,0,0-1.35-.17c-2.55.36-5.09.74-7.63,1.18-2.35.4-4.68.88-7,1.32l-.08.45c5.33,4.13,10.61,8.33,16,12.38a33.39,33.39,0,0,1,10,11.17c.65,1.25,2,2.61.25,4.09-.12.1-.06.41-.1.62-.7,4.33-1,8.77-2.19,13-2.87,10.36-4.84,21-9,31-2.64,6.27-4.64,12.82-7.4,19-5.21,11.7-10.56,23.36-16.24,34.84-4.56,9.22-9.37,18.36-14.66,27.18-4.1,6.83-9.08,13.14-13.72,19.65a244.08,244.08,0,0,1-27.64,32.84c-6,5.9-11.91,11.91-18,17.74-9.91,9.51-21,17.47-32.42,25.06a222,222,0,0,1-41,21.45,23.8,23.8,0,0,1-6.56,1.28c-1.26.12-2.65-.32-2.37-1.92-.81-.68-1.42-1.28-2.11-1.75-1.55-1.05-3.59-.75-5-2.7-1.11-1.52-3.62-2.2-5.64-2.84-11.91-3.75-22.68-9.94-33.69-15.61-6.57-3.38-12.35-7.93-18.18-12.41a186.55,186.55,0,0,1-22.82-20c-5.87-6.26-11.34-12.9-17.28-19.09a216.72,216.72,0,0,1-26.31-33.48c-6.58-10.32-13.18-20.62-19.51-31.1s-12.66-21.31-17-33c-3.45-9.25-7.52-18.27-10.68-27.61-2.8-8.27-4.74-16.82-7-25.26-1.57-5.8-3.13-11.6-4.61-17.42a7.49,7.49,0,0,1,1.33-6.87c2.42-2.93,4.89-5.84,7.56-8.54a101.52,101.52,0,0,1,15.76-12.69C50.16,96.5,60,89.27,70.23,82.71,81,75.84,92,69.43,103,63c8.52-5,17-10,25.85-14.39,10.7-5.3,21.64-10.15,32.66-14.76a195.52,195.52,0,0,1,35.56-10.6,42.39,42.39,0,0,1,5.87-.9c1.48-.1,3.14.08,3.91,1.61.54,1.08-.73,2.93-2.55,3.66-2.83,1.14-5.72,2.12-8.6,3.14-1.52.54-3.06,1-4.89,1.61A46.82,46.82,0,0,1,195,34.64q11.44,7.92,22.81,15.94a1.48,1.48,0,0,0,2.2-.06q6.94-5.86,14-11.55c1.16-.94,2.48-1.67,3.9-2.61a26.73,26.73,0,0,1-3.07-.9c-7.47-3.28-14.93-6.56-22.36-9.92a28.35,28.35,0,0,1-4.69-2.8c-.48-.35-.57-1.24-.85-1.89a9.38,9.38,0,0,1,1.76-.64,4.65,4.65,0,0,1,1.59.16A71,71,0,0,1,230.76,28c3.31,1.83,7.15,3.18,8.91,7l12.11-5.93c-14.3-5.76-27.77-12.7-40.63-19.47a19.37,19.37,0,0,1-3.44,2.54,53.4,53.4,0,0,1-6.28,2A233.44,233.44,0,0,0,173.3,24.41C168.12,26.61,163,29,157.77,31c-8,3.13-16.07,6-24.05,9.11-13.26,5.18-25.74,12-38.24,18.7-5.75,3.1-11.4,6.4-17.1,9.6-5.23,2.94-10.6,5.67-15.67,8.88-6.38,4-12.6,8.36-18.73,12.77-9,6.45-17.82,13.07-26.69,19.66C12.34,113.41,7.45,117.15,2.31,121ZM347.74,241.16c.5-.86.81-1.34,1.07-1.85,1.93-3.83,3.82-7.69,5.78-11.51,3.77-7.34,7.81-14.56,11.29-22,3.91-8.4,7.53-17,10.9-25.59,2.84-7.28,5.26-14.73,7.64-22.18,1.74-5.46,3.19-11,4.64-16.55,1.18-4.51,2.14-9.07,3.24-13.6a2.35,2.35,0,0,0-.89-2.54c-2.5-2.19-4.94-4.45-7.47-6.6-5.42-4.61-10.41-9.77-17-12.82a4.1,4.1,0,0,0-3.15-.5c-6.87,2.12-13.79,4.09-20.62,6.33-14.9,4.89-28.57,12-40.28,22.6-2.45,2.21-4.7,4.64-7.08,7a45.4,45.4,0,0,1,4.33,3.9c4.15,4.85,8.41,9.63,12.19,14.76,5,6.72,9.53,13.73,14.18,20.67a88.55,88.55,0,0,1,5.92,9.74,60.21,60.21,0,0,1,3.87,10.19c1,3.42,1.76,7.08-2.5,9.44C340.51,219.44,343.66,230.27,347.74,241.16ZM240.82,264.53h.89c5.08-.13,10.17-1,15.23.3.38.1,1.38-.7,1.45-1.18a13.86,13.86,0,0,0,0-3.83c-.42-3.07-1-6.11-1.41-9.19-.2-1.67.54-2.16,2.25-2a36.09,36.09,0,0,0,4.3.28c2.89,0,5.79-.14,8.68-.18,5.21-.07,10.41-.05,15.62-.18a2.69,2.69,0,0,0,3-2.73c.41-4.26-.14-8.33-2.68-12-.65-.93-1.13-2-1.75-3.09,1.35,0,2.42-.08,3.47,0,3.78.35,7.54.92,11.33,1.08a44.52,44.52,0,0,0,7.52-.56,3.61,3.61,0,0,0,3.14-2.86,9.89,9.89,0,0,0-.07-6c-.73-2-1.23-4.11-2-6.1a20.38,20.38,0,0,0-1.93-3.62c-.78-1.22-1.71-2.34-2.57-3.51l.41-.56,4.45,1.45-1.35-1.72c2-.36,3.64-.63,5.28-1,4.15-.83,8.34-1.51,12.42-2.6,3.14-.84,4.36-3.36,3.63-6.53a10.81,10.81,0,0,0-.84-2.25c-4.05-8.38-9.35-16-14.63-23.62s-10.53-15-15.84-22.47c-1.42-2-3-3.87-4.48-5.77a2.21,2.21,0,0,0-.46.24,3.26,3.26,0,0,0-.4.5,35.79,35.79,0,0,0-5.62,17.6c-.31,7.21,2.2,13.66,5.8,19.79a32.13,32.13,0,0,0,10.32,11.28,24.75,24.75,0,0,1,3.39,3,9.68,9.68,0,0,1,1,1.41c-6.43.58-11.66-2.06-16.82-4.77A41.43,41.43,0,0,1,278,181.64a10.73,10.73,0,0,0,.13,1.11c1.3,4.69,3.39,9,7.2,12.13,3,2.48,4.69,6.53,9,7.42a2.08,2.08,0,0,1,1,.8,9.75,9.75,0,0,1,.76,1.3c-.46.22-.92.65-1.38.64a58.2,58.2,0,0,1-9-.39c-8.55-1.51-16-5.54-22.6-11-1.19-1-2.35-2-3.52-3C254.1,197.37,239.62,254.29,240.82,264.53ZM122.77,103.75c15.44-.72,29.29-5.69,43.09-11.54a7.05,7.05,0,0,0-.63-.52c-6-3.68-10.74-8.86-15.89-13.55a11.84,11.84,0,0,1-1.52-2.49c11,3.37,36.26,2.73,42-.93a6.47,6.47,0,0,0-.57-.54q-.84-.62-1.71-1.21c-4.28-2.9-8.37-6-11.44-10.27a25.82,25.82,0,0,1-1.57-2.83c18.67,7.4,32.58.58,40.53-5.38-3.48-.57-6-2.7-8.55-4.86-1.51-1.29-3-2.66-4.56-3.82-4.77-3.46-9.67-6.76-14.38-10.3a3.52,3.52,0,0,0-3.88-.66c-6.41,2.45-12.9,4.68-19.29,7.18Q152,46.9,139.71,52.09c-4.34,1.84-8.55,4-12.78,6-2.92,1.42-5.79,2.94-8.48,4.31a28.71,28.71,0,0,1,1.16,3.17c2.31,9.88,3,19.94,3.15,30C122.81,98.27,122.77,100.89,122.77,103.75ZM70.17,205.64c-6.82,6.49-9.07,7.49-16.56,7.42a2.41,2.41,0,0,0-.13.59c.06,2.67.46,5.36-.92,7.88-.13.24.2.78.4,1.13,1.82,3.1,3.86,6.09,5.46,9.3a211.42,211.42,0,0,0,21.17,34.55c3.92,5.11,7.71,10.34,12,15.13,6,6.72,12.4,13.08,18.61,19.61a40,40,0,0,1,2.66,3c1,1.35,1.88.19,2.79-.13s.68-1,.46-1.71c-.83-2.55-1.66-5.1-2.46-7.66a328.16,328.16,0,0,1-9.34-36.29c-2.31-12.12-5.15-24.16-5.91-36.53a2.19,2.19,0,0,0-.2-.93c-1.35-2.35-2.73-4.68-4.24-7.26a9.52,9.52,0,0,1-.9,1.17A20.46,20.46,0,0,1,80.23,221a7,7,0,0,1-7.46-4.64,18.69,18.69,0,0,1-.85-2.59C71.31,211.11,70.77,208.45,70.17,205.64ZM122.3,220.7c.08.53.11.83.17,1.13,2.14,9.48,4.47,18.9,8,28q6.52,16.53,12.95,33.1c3.28,8.41,6.74,16.73,12.13,24.06a62.88,62.88,0,0,0,6.66,7.79c1.94,1.89,3.51,1.74,5.51,0,2.15-1.92,4.14-4,6.19-6.07a1.15,1.15,0,0,0,.33-.7c.07-3.43.28-6.89-1.37-10.09-1.74-3.39-3.59-6.72-5.23-10.15-4.6-9.62-9.39-19.17-13.6-29-3.55-8.25-6.49-16.77-9.52-25.24-1.73-4.82-3.1-9.76-4.62-14.58-2.52,1.22-5,2.55-7.53,3.6a8.16,8.16,0,0,1-7.87-.58C123.91,221.5,123.19,221.18,122.3,220.7Zm-20.84,1.93c.95,4.11,1.88,8.13,2.8,12.15,2.67,11.61,5,23.31,8.1,34.8,2.83,10.45,6.49,20.67,9.85,31a26.24,26.24,0,0,0,6.3,10.72c1.54,1.54,2.19,1.74,3.76.25,4-3.87,8-7.87,12.07-11.94,0,0-.19-.38-.33-.72-3.12-7.47-6.44-14.86-9.29-22.42-2.54-6.72-4.45-13.67-6.84-20.45-4.14-11.69-6.57-23.78-8.8-35.92a8.34,8.34,0,0,1,.45-2.52l-2.86-4.3C112.76,218.32,108.58,220.9,101.46,222.63Zm13.82,84.49c2.45,2.56,4.63,5.17,7.14,7.4,7.31,6.47,14.56,13,22.2,19.08a160.8,160.8,0,0,0,19.74,13.84c12.75,7.3,25.9,13.9,38.87,20.81a3.21,3.21,0,0,1,.93.8,4.71,4.71,0,0,0,6.27,1.38c-1.37-.81-2.65-1.68-4-2.36s-3-1.1-2.73-3.2c0-.2-.29-.43-.43-.65-3.17-5.16-6.52-10.21-9.47-15.5-6.14-11-10.7-22.69-14.95-34.52-.46-1.29-1-2.56-1.47-3.94-4.79,8.62-12.06,9.1-20.48,6.67,2.09,3.78,4,7.43,6.09,11,3.27,5.59,6.71,11.09,10,16.7,1.34,2.32,2.78,4.67,2.94,8a22,22,0,0,1-4.13-1.85A29.42,29.42,0,0,1,163,340.65c-2.68-5.23-4.8-10.76-7-16.24-1.33-3.37-3.3-6.68-2.33-10.59,0-.12-.11-.3-.2-.42l-3.32-4.17a1.13,1.13,0,0,0-.06.88c1.66,4.87,3.35,9.74,5,14.61s3.25,9.53,4.74,14.34a38.9,38.9,0,0,1,.85,5.25,9.4,9.4,0,0,1-2.1-1.48c-1.74-2.36-3.53-4.7-5-7.21-4.92-8.28-6.37-17.56-7.53-26.91-.17-1.34-.23-2.78,1.89-2.91l-2.36-3.89c-2.08,7-6.28,11.5-13.35,12.73-7.84,1.36-10.51-1-13.75-6.64C117.65,306.49,116.92,306.24,115.28,307.12Zm156.41,27.31a39.46,39.46,0,0,1-1.53-4.43c-1-4.61-1.76-9.27-2.82-13.86-3.5-15.13-5.22-30.55-7.5-45.88-.49-3.29-.6-3.47-3.95-3.71-.37,0-.75,0-1.13,0l-11.26-.09h-3.23c-.22,4.84-.51,9.6-.61,14.36-.07,3.09-.13,6.05,1.43,9.11A57.05,57.05,0,0,1,245,301.63c3.39,13,6.6,26.1,9.94,39.15a32,32,0,0,0,1.83,4.32Zm-46.14,28.88.63.17c1.6-.85,3.22-1.67,4.81-2.54q6.47-3.58,12.92-7.19c1-.54,1.35-1.11.73-2.32a20.82,20.82,0,0,1-2.35-7.59c-.58-6-1.51-12-2.13-18-.81-7.78-1.5-15.57-2.15-23.36-.19-2.35,0-2.46,2.2-2.77l-1-5.79-.36,0-1,4.2c-3.24-2.85-6.41-5.27-9.11-8.13s-4.88-6.1-7.28-9.17a55.77,55.77,0,0,1-1.52,6.38c-1.79,5-3.8,9.91-5.68,14.87a3.62,3.62,0,0,0-.29,2.1c4.25,14.19,8.11,28.47,10.36,43.14.39,2.54.69,5.1.89,7.66C225.37,357.72,225.42,360.52,225.55,363.31Zm64.34-110.74c-8.57-.68-17.11-1-26-.87,1.82,2.79,1.87,5.73,1.67,8.67a21.18,21.18,0,0,0,2.1,10.81,253,253,0,0,1,11.71,29.6q2.93,9.1,5.83,18.2c.33,1,.57,2.1,1,3.56l12-11.55a24.05,24.05,0,0,1-2.06-4.1,65.65,65.65,0,0,1-1.88-8.8c-.61-4.78-.74-9.63-1.38-14.4-.8-6-2-11.86-2.88-17.79-.51-3.29-.89-6.6-1.22-9.9C288.53,254.82,288.32,253.47,289.89,252.57Zm3.58-.55c1.74,3.78,3.44,7.36,5,11,4.53,10.28,10.42,20,13.22,31,.32,1.25.91,1.36,1.71.33,3.68-4.68,7.38-9.34,11-14.09,1.88-2.49,1.66-3,0-5.67a21,21,0,0,1-2.5-5.52c-1.11-4.14-1.87-8.37-2.87-12.54-1.55-6.52-3.2-13-4.75-19.54a1.27,1.27,0,0,0-1.54-1.17,48.48,48.48,0,0,1-5.62.16c-4.35-.29-8.7-.74-13.24-1.14a20.68,20.68,0,0,0,1.85,1.66,5.54,5.54,0,0,1,2.48,4.65c0,2.46,0,4.93-.16,7.37-.16,2-1.24,2.88-3.21,3.26ZM336,262.78c.25-.24.5-.37.62-.59,2.53-4.59,5.08-9.18,7.52-13.82a3.06,3.06,0,0,0,0-2.27c-.88-2.23-2.15-4.33-2.91-6.6-3.08-9.25-6-18.54-9-27.83-.24-.74-.49-1.09-1.36-.8a13.23,13.23,0,0,1-2.52.47c-5.66.73-11.3.24-16.69-.31a42.21,42.21,0,0,1,4.62,4.35c3.09,3.87,3.93,8.59,4.55,13.36a9.42,9.42,0,0,0,.69,2.75c2.81,6,5.74,12,8.54,18C332.08,253.87,334,258.29,336,262.78ZM209.61,312.6c-5,7.72-9.56,15.62-16,22.06a140.44,140.44,0,0,0,16.51,29.1c.59-1.18,1.22-2.34,1.75-3.55a3.26,3.26,0,0,0,.16-1.39c-.09-2.46-.22-4.93-.34-7.39q-.77-16-1.55-32C210,317.16,209.78,314.88,209.61,312.6Zm85.52-46.73-.3.16c1.05,5.37,2.19,10.72,3.13,16.1,1.41,8.07,3.67,16,3.13,24.35,0,.13.09.27.22.62l8.45-8a41.86,41.86,0,0,1-3.27-5.29c-2.35-5.51-4.5-11.12-6.74-16.68C298.23,273.37,296.67,269.62,295.13,265.86ZM216.54,368.4c2.1-1.06,3.95-2,5.77-2.93a.94.94,0,0,0,.46-.73,18.8,18.8,0,0,0-1-4.18,39.86,39.86,0,0,1-3.24-13.32c-.19-2.55-.66-5.09-1-7.78-.3.23-.37.26-.37.29-.52,6.24-1.06,12.48-1.53,18.72a1.57,1.57,0,0,0,.76,1.13,2.17,2.17,0,0,1,1.26,2.63C217.25,364.14,217,366.08,216.54,368.4Zm111.41-94.14a12.56,12.56,0,0,0,1.22-1.16c1.09-1.46,2.1-3,3.24-4.4.7-.88.63-1.46-.12-2.32a16.31,16.31,0,0,1-2.63-3.8c-2.42-5.25-4.69-10.56-7-15.84-1-2.37-2.11-4.74-3.17-7.11l-.43.16C322.46,251,327,261.92,327.95,274.26ZM43.38,204.89,49.9,218a22.3,22.3,0,0,0-1.15-13.65ZM274.51,314.61l2.13,16,4-3.49C276.2,324,276.27,318.9,274.51,314.61Zm-26.13,25.75-.44.11a20.09,20.09,0,0,0,0,2.48,27.64,27.64,0,0,1,.58,3c0,1.57-.22,3.14-.38,5.08l4.18-2.79Z"/>
            <path d="M153,36.2583329 C153.50593,36.0346163 154.039659,35.9152779 154.578656,35.9053557 C155.295072,35.9365893 155.998429,36.145174 156.644756,36.5180707 C158.955947,37.609861 161.58885,36.805716 163.186484,34.520087 C164.696218,32.2481899 166.302879,30.071908 168,28 C168,28 157.209749,29.598387 153,36.2583329 Z" id="Path"></path>
        </g>
    </g>
</svg>
